# xmcd
#
# Track frame offsets:
#	150
#	10905
#	28018
#	36285
#	53498
#	64960
#	84045
#	94960
#	110580
#	123210
#	143278
#	156978
#	169638
#	181118
#	192398
#	207545
#
# Disc length: 2962 seconds
#
# Revision: 0
# Processed by: cddbd v1.5.2PL0 Copyright (c) Steve Scherf et al.
# Submitted via: EasyCDDAExtractor 16.0.6.1
#
DISCID=ce0b9010
DTITLE=Συλλογικός δίσκος - Ο Θεοδωράκης διευθύνει Θεοδωράκη 1
DYEAR=1991
DGENRE=Έντεχνη λαϊκή
TTITLE0=Καλογιάννης Αντώνης-Δημητριάδη Μαρία - Το παλληκάρι έχει καημό [1974, 
TTITLE0=Τα λαϊκά, Μ. Θεοδωράκη-Μ. Ελευθερίου]
TTITLE1=Καλογιάννης Αντώνης-Δημητριάδη Μαρία - Νυχτερίδα [1974, Τα λαϊκά, Μ. Θ
TTITLE1=εοδωράκη-Μ. Ελευθερίου]
TTITLE2=Καλογιάννης Αντώνης-Δημητριάδη Μαρία - Σ' αυτή τη γειτονιά [1974, Τα λ
TTITLE2=αϊκά, Μ. Θεοδωράκη-Μ. Ελευθερίου]
TTITLE3=Καλογιάννης Αντώνης-Δημητριάδη Μαρία - Η πόρτα μου είναι ανοιχτή [1974
TTITLE3=, Τα λαϊκά, Μ. Θεοδωράκη-Μ. Ελευθερίου]
TTITLE4=Καλογιάννης Αντώνης-Δημητριάδη Μαρία - Κάθε πρωί [1974, Τα λαϊκά, Μ. Θ
TTITLE4=εοδωράκη-Μ. Ελευθερίου]
TTITLE5=Καλογιάννης Αντώνης-Δημητριάδη Μαρία - Το σπίτι μου είναι μικρό [1974,
TTITLE5=Τα λαϊκά, Μ. Θεοδωράκη-Μ. Ελευθερίου]
TTITLE6=Καλογιάννης Αντώνης-Δημητριάδη Μαρία - Ο δικαστής [1974, Τα λαϊκ', Μ. 
TTITLE6=Θεοδωράκη-Μ. Ελευθερίου]
TTITLE7=Καλογιάννης Αντώνης-Δημητριάδη Μαρία - Το ψωμί μου είναι μικρό [1974, 
TTITLE7=Τα λαϊκά, Μ. Θεοδωράκη-Μ. Ελευθερίου]
TTITLE8=Καλογιάννης Αντώνης-Δημητριάδη Μαρία - Σ' αυτό το δύσκολο καιρό [1974,
TTITLE8=Τα λαϊκά, Μ. Θεοδωράκη-Μ. Ελευθερίου]
TTITLE9=Καλογιάννης Αντώνης-Δημητριάδη Μαρία - Το τρένο [1974, Τα λαϊκά, Μ. Θε
TTITLE9=οδωράκη-Μ. Ελευθερίου]
TTITLE10=Καλογιάννης Αντώνης-Δημητριάδη Μαρία - Έχει ο Θεός [1974, Τα λαϊκά, Μ
TTITLE10=Θεοδωράκη-Μ. Ελευθερίου]
TTITLE11=Καλογιάννης Αντώνης-Δημητριάδη Μαρία - Ήρθαν τα βάσανα [1974, Τα λαϊκ
TTITLE11=ά, Μ. Θεοδωράκη-Μ. Ελευθερίου]
TTITLE12=Καλογιάννης Αντώνης-Φαραντούρη Μαρία   - Αυτό που ήσουν [1974, Τα τρα
TTITLE12=γ. του Ανδρέα, μουσ., στίχ. Μ. Θεοδωράκη]
TTITLE13=Καλογιάννης Αντώνης-Φαραντούρη Μαρία   - Είμαστε δυό [1974, Τα τραγ. 
TTITLE13=του Ανδρέα, μουσ., στίχ. Μ. Θεοδωράκη]
TTITLE14=Καλογιάννης Αντώνης-Φαραντούρη Μαρία   - Σού είπαν ψέματα [1974, Τα τ
TTITLE14=ραγ. του Ανδρέα μουσ., στίχ. Μ. Θεοδωράκη]
TTITLE15=Καλογιάννης Αντώνης-Φαραντούρη Μαρία   - Το μεσημέρι [1974, Τα τραγ. 
TTITLE15=του Ανδρέα, μουσ., στίχ. Μ. Θεοδωράκη]
EXTD=
EXTT0=
EXTT1=
EXTT2=
EXTT3=
EXTT4=
EXTT5=
EXTT6=
EXTT7=
EXTT8=
EXTT9=
EXTT10=
EXTT11=
EXTT12=
EXTT13=
EXTT14=
EXTT15=
PLAYORDER=
